<mxfile host="65bd71144e">
    <diagram id="hhWh5JsoKfUhypV8n_U0" name="Page-1">
        <mxGraphModel dx="1509" dy="1227" grid="0" gridSize="10" guides="1" tooltips="1" connect="1" arrows="1" fold="1" page="0" pageScale="1" pageWidth="827" pageHeight="1169" math="0" shadow="0">
            <root>
                <mxCell id="0"/>
                <mxCell id="1" parent="0"/>
                <mxCell id="6" value="Before" style="text;html=1;strokeColor=none;fillColor=none;align=center;verticalAlign=middle;whiteSpace=wrap;rounded=0;sketch=1;fontFamily=Architects Daughter;fontSource=https%3A%2F%2Ffonts.googleapis.com%2Fcss%3Ffamily%3DArchitects%2BDaughter;fontSize=20;" parent="1" vertex="1">
                    <mxGeometry x="-85" y="-30" width="90" height="30" as="geometry"/>
                </mxCell>
                <mxCell id="65" value="" style="edgeStyle=none;sketch=1;hachureGap=4;jiggle=2;curveFitting=1;html=1;fontFamily=Architects Daughter;fontSource=https%3A%2F%2Ffonts.googleapis.com%2Fcss%3Ffamily%3DArchitects%2BDaughter;fontSize=16;entryX=0.5;entryY=0;entryDx=0;entryDy=0;" parent="1" source="40" target="72" edge="1">
                    <mxGeometry relative="1" as="geometry">
                        <mxPoint x="105" y="100" as="targetPoint"/>
                    </mxGeometry>
                </mxCell>
                <mxCell id="40" value="DB&lt;br&gt;(ingestion)" style="shape=cylinder3;whiteSpace=wrap;html=1;boundedLbl=1;backgroundOutline=1;size=7;sketch=1;fontFamily=Architects Daughter;fontSource=https%3A%2F%2Ffonts.googleapis.com%2Fcss%3Ffamily%3DArchitects%2BDaughter;fillColor=none;" parent="1" vertex="1">
                    <mxGeometry x="-85" y="40" width="120" height="60" as="geometry"/>
                </mxCell>
                <mxCell id="52" value="After" style="text;html=1;strokeColor=none;fillColor=none;align=center;verticalAlign=middle;whiteSpace=wrap;rounded=0;sketch=1;fontFamily=Architects Daughter;fontSource=https%3A%2F%2Ffonts.googleapis.com%2Fcss%3Ffamily%3DArchitects%2BDaughter;fontSize=20;" parent="1" vertex="1">
                    <mxGeometry x="360" y="-30" width="70" height="30" as="geometry"/>
                </mxCell>
                <mxCell id="91" value="Reads" style="edgeStyle=orthogonalEdgeStyle;sketch=1;hachureGap=4;jiggle=2;curveFitting=1;html=1;fontFamily=Architects Daughter;fontSource=https%3A%2F%2Ffonts.googleapis.com%2Fcss%3Ffamily%3DArchitects%2BDaughter;fontSize=12;startArrow=none;startFill=0;endArrow=classic;endFill=1;" edge="1" parent="1" source="54" target="90">
                    <mxGeometry relative="1" as="geometry">
                        <Array as="points">
                            <mxPoint x="420" y="190"/>
                        </Array>
                    </mxGeometry>
                </mxCell>
                <mxCell id="54" value="DB&lt;br&gt;(ingestion + queries)" style="shape=cylinder3;whiteSpace=wrap;html=1;boundedLbl=1;backgroundOutline=1;size=7;sketch=1;fontFamily=Architects Daughter;fontSource=https%3A%2F%2Ffonts.googleapis.com%2Fcss%3Ffamily%3DArchitects%2BDaughter;fillColor=none;" parent="1" vertex="1">
                    <mxGeometry x="360" y="40" width="120" height="60" as="geometry"/>
                </mxCell>
                <mxCell id="66" value="" style="edgeStyle=none;sketch=1;hachureGap=4;jiggle=2;curveFitting=1;html=1;fontFamily=Architects Daughter;fontSource=https%3A%2F%2Ffonts.googleapis.com%2Fcss%3Ffamily%3DArchitects%2BDaughter;fontSize=12;" parent="1" target="68" edge="1">
                    <mxGeometry relative="1" as="geometry">
                        <mxPoint x="-25" y="300" as="sourcePoint"/>
                    </mxGeometry>
                </mxCell>
                <mxCell id="67" style="edgeStyle=orthogonalEdgeStyle;sketch=1;hachureGap=4;jiggle=2;curveFitting=1;html=1;entryX=0.5;entryY=0;entryDx=0;entryDy=0;fontFamily=Architects Daughter;fontSource=https%3A%2F%2Ffonts.googleapis.com%2Fcss%3Ffamily%3DArchitects%2BDaughter;fontSize=12;" parent="1" source="68" target="71" edge="1">
                    <mxGeometry relative="1" as="geometry"/>
                </mxCell>
                <mxCell id="68" value="Queue" style="shape=process;whiteSpace=wrap;html=1;backgroundOutline=1;sketch=1;hachureGap=4;jiggle=2;curveFitting=1;fontFamily=Architects Daughter;fontSource=https%3A%2F%2Ffonts.googleapis.com%2Fcss%3Ffamily%3DArchitects%2BDaughter;fontSize=12;fillColor=none;" parent="1" vertex="1">
                    <mxGeometry x="-85" y="240" width="120" height="60" as="geometry"/>
                </mxCell>
                <mxCell id="69" value="DB&lt;br&gt;(queries)" style="shape=cylinder3;whiteSpace=wrap;html=1;boundedLbl=1;backgroundOutline=1;size=7;sketch=1;fontFamily=Architects Daughter;fontSource=https%3A%2F%2Ffonts.googleapis.com%2Fcss%3Ffamily%3DArchitects%2BDaughter;fillColor=none;" parent="1" vertex="1">
                    <mxGeometry x="-85" y="440" width="120" height="60" as="geometry"/>
                </mxCell>
                <mxCell id="70" value="" style="edgeStyle=orthogonalEdgeStyle;sketch=1;hachureGap=4;jiggle=2;curveFitting=1;html=1;fontFamily=Architects Daughter;fontSource=https%3A%2F%2Ffonts.googleapis.com%2Fcss%3Ffamily%3DArchitects%2BDaughter;fontSize=12;" parent="1" source="71" target="69" edge="1">
                    <mxGeometry relative="1" as="geometry"/>
                </mxCell>
                <mxCell id="71" value="Load" style="rounded=1;whiteSpace=wrap;html=1;sketch=1;hachureGap=4;jiggle=2;curveFitting=1;fontFamily=Architects Daughter;fontSource=https%3A%2F%2Ffonts.googleapis.com%2Fcss%3Ffamily%3DArchitects%2BDaughter;fontSize=12;fillColor=none;" parent="1" vertex="1">
                    <mxGeometry x="-85" y="340" width="120" height="60" as="geometry"/>
                </mxCell>
                <mxCell id="73" value="" style="edgeStyle=none;sketch=1;hachureGap=4;jiggle=2;curveFitting=1;html=1;fontFamily=Architects Daughter;fontSource=https%3A%2F%2Ffonts.googleapis.com%2Fcss%3Ffamily%3DArchitects%2BDaughter;fontSize=16;" parent="1" source="72" target="68" edge="1">
                    <mxGeometry relative="1" as="geometry"/>
                </mxCell>
                <mxCell id="72" value="Debezium" style="rounded=1;whiteSpace=wrap;html=1;sketch=1;hachureGap=4;jiggle=2;curveFitting=1;fontFamily=Architects Daughter;fontSource=https%3A%2F%2Ffonts.googleapis.com%2Fcss%3Ffamily%3DArchitects%2BDaughter;fontSize=12;fillColor=none;" parent="1" vertex="1">
                    <mxGeometry x="-85" y="140" width="120" height="60" as="geometry"/>
                </mxCell>
                <mxCell id="74" value="1" style="text;html=1;align=center;verticalAlign=middle;resizable=0;points=[];autosize=1;strokeColor=none;fillColor=none;fontSize=20;fontFamily=Architects Daughter;sketch=1;hachureGap=4;jiggle=2;curveFitting=1;fontSource=https%3A%2F%2Ffonts.googleapis.com%2Fcss%3Ffamily%3DArchitects%2BDaughter;" vertex="1" parent="1">
                    <mxGeometry x="-155" y="40" width="30" height="40" as="geometry"/>
                </mxCell>
                <mxCell id="75" value="2" style="text;html=1;align=center;verticalAlign=middle;resizable=0;points=[];autosize=1;strokeColor=none;fillColor=none;fontSize=20;fontFamily=Architects Daughter;sketch=1;hachureGap=4;jiggle=2;curveFitting=1;fontSource=https%3A%2F%2Ffonts.googleapis.com%2Fcss%3Ffamily%3DArchitects%2BDaughter;" vertex="1" parent="1">
                    <mxGeometry x="-155" y="140" width="30" height="40" as="geometry"/>
                </mxCell>
                <mxCell id="76" value="3" style="text;html=1;align=center;verticalAlign=middle;resizable=0;points=[];autosize=1;strokeColor=none;fillColor=none;fontSize=20;fontFamily=Architects Daughter;sketch=1;hachureGap=4;jiggle=2;curveFitting=1;fontSource=https%3A%2F%2Ffonts.googleapis.com%2Fcss%3Ffamily%3DArchitects%2BDaughter;" vertex="1" parent="1">
                    <mxGeometry x="-155" y="240" width="30" height="40" as="geometry"/>
                </mxCell>
                <mxCell id="77" value="4" style="text;html=1;align=center;verticalAlign=middle;resizable=0;points=[];autosize=1;strokeColor=none;fillColor=none;fontSize=20;fontFamily=Architects Daughter;sketch=1;hachureGap=4;jiggle=2;curveFitting=1;fontSource=https%3A%2F%2Ffonts.googleapis.com%2Fcss%3Ffamily%3DArchitects%2BDaughter;" vertex="1" parent="1">
                    <mxGeometry x="-160" y="340" width="40" height="40" as="geometry"/>
                </mxCell>
                <mxCell id="78" value="5" style="text;html=1;align=center;verticalAlign=middle;resizable=0;points=[];autosize=1;strokeColor=none;fillColor=none;fontSize=20;fontFamily=Architects Daughter;sketch=1;hachureGap=4;jiggle=2;curveFitting=1;fontSource=https%3A%2F%2Ffonts.googleapis.com%2Fcss%3Ffamily%3DArchitects%2BDaughter;" vertex="1" parent="1">
                    <mxGeometry x="-160" y="440" width="40" height="40" as="geometry"/>
                </mxCell>
                <mxCell id="79" value="1" style="text;html=1;align=center;verticalAlign=middle;resizable=0;points=[];autosize=1;strokeColor=none;fillColor=none;fontSize=20;fontFamily=Architects Daughter;sketch=1;hachureGap=4;jiggle=2;curveFitting=1;fontSource=https%3A%2F%2Ffonts.googleapis.com%2Fcss%3Ffamily%3DArchitects%2BDaughter;" vertex="1" parent="1">
                    <mxGeometry x="290" y="40" width="30" height="40" as="geometry"/>
                </mxCell>
                <mxCell id="80" value="&lt;h1 style=&quot;font-size: 18px;&quot;&gt;&lt;font style=&quot;font-size: 18px;&quot;&gt;Animation Storyboard&lt;/font&gt;&lt;/h1&gt;&lt;div style=&quot;font-size: 12px;&quot;&gt;User/application writes data to 1&lt;br&gt;&lt;br&gt;Row change event travels from 1 -&amp;gt; 2 -&amp;gt; 3 -&amp;gt; 4 -&amp;gt; 5&lt;br&gt;&lt;br&gt;Another user/application reads from 5&lt;/div&gt;" style="text;html=1;strokeColor=none;fillColor=none;spacing=5;spacingTop=-20;whiteSpace=wrap;overflow=hidden;rounded=0;sketch=1;hachureGap=4;jiggle=2;curveFitting=1;fontFamily=Architects Daughter;fontSource=https%3A%2F%2Ffonts.googleapis.com%2Fcss%3Ffamily%3DArchitects%2BDaughter;fontSize=18;" vertex="1" parent="1">
                    <mxGeometry x="-160" y="580" width="320" height="120" as="geometry"/>
                </mxCell>
                <mxCell id="82" value="Writes" style="edgeStyle=none;sketch=1;hachureGap=4;jiggle=2;curveFitting=1;html=1;fontFamily=Architects Daughter;fontSource=https%3A%2F%2Ffonts.googleapis.com%2Fcss%3Ffamily%3DArchitects%2BDaughter;fontSize=12;" edge="1" parent="1" source="81" target="40">
                    <mxGeometry x="0.0182" relative="1" as="geometry">
                        <mxPoint as="offset"/>
                    </mxGeometry>
                </mxCell>
                <mxCell id="81" value="User" style="shape=umlActor;verticalLabelPosition=bottom;verticalAlign=top;html=1;outlineConnect=0;sketch=1;hachureGap=4;jiggle=2;curveFitting=1;fontFamily=Architects Daughter;fontSource=https%3A%2F%2Ffonts.googleapis.com%2Fcss%3Ffamily%3DArchitects%2BDaughter;fontSize=12;" vertex="1" parent="1">
                    <mxGeometry x="120" y="40" width="30" height="60" as="geometry"/>
                </mxCell>
                <mxCell id="84" value="Reads" style="edgeStyle=none;sketch=1;hachureGap=4;jiggle=2;curveFitting=1;html=1;fontFamily=Architects Daughter;fontSource=https%3A%2F%2Ffonts.googleapis.com%2Fcss%3Ffamily%3DArchitects%2BDaughter;fontSize=12;startArrow=classic;startFill=1;endArrow=none;endFill=0;" edge="1" parent="1" source="83" target="69">
                    <mxGeometry relative="1" as="geometry"/>
                </mxCell>
                <mxCell id="83" value="User" style="shape=umlActor;verticalLabelPosition=bottom;verticalAlign=top;html=1;outlineConnect=0;sketch=1;hachureGap=4;jiggle=2;curveFitting=1;fontFamily=Architects Daughter;fontSource=https%3A%2F%2Ffonts.googleapis.com%2Fcss%3Ffamily%3DArchitects%2BDaughter;fontSize=12;" vertex="1" parent="1">
                    <mxGeometry x="120" y="440" width="30" height="60" as="geometry"/>
                </mxCell>
                <mxCell id="86" value="Writes" style="edgeStyle=none;sketch=1;hachureGap=4;jiggle=2;curveFitting=1;html=1;fontFamily=Architects Daughter;fontSource=https%3A%2F%2Ffonts.googleapis.com%2Fcss%3Ffamily%3DArchitects%2BDaughter;fontSize=12;startArrow=none;startFill=0;endArrow=classic;endFill=1;" edge="1" parent="1" source="85" target="54">
                    <mxGeometry relative="1" as="geometry"/>
                </mxCell>
                <mxCell id="85" value="User" style="shape=umlActor;verticalLabelPosition=bottom;verticalAlign=top;html=1;outlineConnect=0;sketch=1;hachureGap=4;jiggle=2;curveFitting=1;fontFamily=Architects Daughter;fontSource=https%3A%2F%2Ffonts.googleapis.com%2Fcss%3Ffamily%3DArchitects%2BDaughter;fontSize=12;" vertex="1" parent="1">
                    <mxGeometry x="560" y="40" width="30" height="60" as="geometry"/>
                </mxCell>
                <mxCell id="89" value="&lt;h1 style=&quot;font-size: 18px;&quot;&gt;&lt;font style=&quot;font-size: 18px;&quot;&gt;Animation Storyboard&lt;/font&gt;&lt;/h1&gt;&lt;div style=&quot;font-size: 12px;&quot;&gt;User/application writes data to 1&lt;br&gt;&lt;br&gt;Another user/application reads from 1&lt;/div&gt;" style="text;html=1;strokeColor=none;fillColor=none;spacing=5;spacingTop=-20;whiteSpace=wrap;overflow=hidden;rounded=0;sketch=1;hachureGap=4;jiggle=2;curveFitting=1;fontFamily=Architects Daughter;fontSource=https%3A%2F%2Ffonts.googleapis.com%2Fcss%3Ffamily%3DArchitects%2BDaughter;fontSize=18;" vertex="1" parent="1">
                    <mxGeometry x="280" y="580" width="320" height="120" as="geometry"/>
                </mxCell>
                <mxCell id="90" value="User" style="shape=umlActor;verticalLabelPosition=bottom;verticalAlign=top;html=1;outlineConnect=0;sketch=1;hachureGap=4;jiggle=2;curveFitting=1;fontFamily=Architects Daughter;fontSource=https%3A%2F%2Ffonts.googleapis.com%2Fcss%3Ffamily%3DArchitects%2BDaughter;fontSize=12;" vertex="1" parent="1">
                    <mxGeometry x="560" y="160" width="30" height="60" as="geometry"/>
                </mxCell>
            </root>
        </mxGraphModel>
    </diagram>
</mxfile>